<svg width="20" height="20" viewBox="0 0 20 20" fill="none" xmlns="http://www.w3.org/2000/svg">
<circle cx="10" cy="10" r="10" fill="white"/>
<g clip-path="url(#clip0)">
<path d="M14.0104 9.72224L13.8021 8.61113L10.5208 9.33335V5.55557H9.47915V8.97224L5.85935 6.47224L5.28644 7.41668L9.24477 10.1389L6.1979 14.3889L7.03123 15.0556L9.97394 10.9445L12.1614 14.4722L13.0469 13.8611L10.8594 10.3889L14.0104 9.72224Z" fill="#3F51B5"/>
<path d="M9.99998 11.9445C11.0067 11.9445 11.8229 11.0739 11.8229 10C11.8229 8.92613 11.0067 8.05557 9.99998 8.05557C8.99321 8.05557 8.17706 8.92613 8.17706 10C8.17706 11.0739 8.99321 11.9445 9.99998 11.9445Z" fill="#3F51B5"/>
<path d="M9.99996 6.94446C10.7191 6.94446 11.302 6.32264 11.302 5.55558C11.302 4.78851 10.7191 4.16669 9.99996 4.16669C9.28084 4.16669 8.69788 4.78851 8.69788 5.55558C8.69788 6.32264 9.28084 6.94446 9.99996 6.94446Z" fill="#3F51B5"/>
<path d="M13.9062 10.5556C14.6253 10.5556 15.2083 9.93375 15.2083 9.16669C15.2083 8.39963 14.6253 7.7778 13.9062 7.7778C13.1871 7.7778 12.6041 8.39963 12.6041 9.16669C12.6041 9.93375 13.1871 10.5556 13.9062 10.5556Z" fill="#3F51B5"/>
<path d="M5.5729 8.33335C6.29202 8.33335 6.87498 7.71152 6.87498 6.94446C6.87498 6.1774 6.29202 5.55557 5.5729 5.55557C4.85378 5.55557 4.27081 6.1774 4.27081 6.94446C4.27081 7.71152 4.85378 8.33335 5.5729 8.33335Z" fill="#3F51B5"/>
<path d="M6.61458 16.1111C7.3337 16.1111 7.91667 15.4893 7.91667 14.7222C7.91667 13.9552 7.3337 13.3333 6.61458 13.3333C5.89546 13.3333 5.3125 13.9552 5.3125 14.7222C5.3125 15.4893 5.89546 16.1111 6.61458 16.1111Z" fill="#3F51B5"/>
<path d="M12.6041 15.5556C13.3233 15.5556 13.9062 14.9338 13.9062 14.1667C13.9062 13.3996 13.3233 12.7778 12.6041 12.7778C11.885 12.7778 11.3021 13.3996 11.3021 14.1667C11.3021 14.9338 11.885 15.5556 12.6041 15.5556Z" fill="#3F51B5"/>
</g>
<defs>
<clipPath id="clip0">
<rect width="12.5" height="13.3333" fill="white" transform="translate(3.75 3.33334)"/>
</clipPath>
</defs>
</svg>
