<svg width="40" height="40" viewBox="0 0 40 40" fill="none" xmlns="http://www.w3.org/2000/svg">
<path d="M35.5556 32.2222H4.44445C4.14977 32.2222 3.86715 32.1052 3.65878 31.8968C3.45041 31.6884 3.33334 31.4058 3.33334 31.1111C3.33334 30.8164 3.45041 30.5338 3.65878 30.3254C3.86715 30.1171 4.14977 30 4.44445 30H35.5556C35.8503 30 36.1329 30.1171 36.3412 30.3254C36.5496 30.5338 36.6667 30.8164 36.6667 31.1111C36.6667 31.4058 36.5496 31.6884 36.3412 31.8968C36.1329 32.1052 35.8503 32.2222 35.5556 32.2222Z" fill="black"/>
<path d="M35.5556 21.1111H4.44445C4.14977 21.1111 3.86715 20.9941 3.65878 20.7857C3.45041 20.5773 3.33334 20.2947 3.33334 20C3.33334 19.7053 3.45041 19.4227 3.65878 19.2144C3.86715 19.006 4.14977 18.8889 4.44445 18.8889H35.5556C35.8503 18.8889 36.1329 19.006 36.3412 19.2144C36.5496 19.4227 36.6667 19.7053 36.6667 20C36.6667 20.2947 36.5496 20.5773 36.3412 20.7857C36.1329 20.9941 35.8503 21.1111 35.5556 21.1111Z" fill="black"/>
<path d="M35.5556 9.99999H4.44445C4.14977 9.99999 3.86715 9.88293 3.65878 9.67456C3.45041 9.46618 3.33334 9.18357 3.33334 8.88888C3.33334 8.5942 3.45041 8.31158 3.65878 8.10321C3.86715 7.89483 4.14977 7.77777 4.44445 7.77777H35.5556C35.8503 7.77777 36.1329 7.89483 36.3412 8.10321C36.5496 8.31158 36.6667 8.5942 36.6667 8.88888C36.6667 9.18357 36.5496 9.46618 36.3412 9.67456C36.1329 9.88293 35.8503 9.99999 35.5556 9.99999Z" fill="black"/>
</svg>
