<svg width="200" height="50" viewBox="0 0 200 50" fill="none" xmlns="http://www.w3.org/2000/svg">
<path d="M62.184 38.288C59.96 38.288 58.256 37.776 57.072 36.752C55.904 35.712 55.32 34.184 55.32 32.168V27.032C55.32 25.016 55.904 23.496 57.072 22.472C58.256 21.432 59.96 20.912 62.184 20.912C64.408 20.912 66.104 21.432 67.272 22.472C68.456 23.496 69.048 25.016 69.048 27.032V32.168C69.048 34.184 68.456 35.712 67.272 36.752C66.104 37.776 64.408 38.288 62.184 38.288ZM62.184 35.648C63.304 35.648 64.16 35.352 64.752 34.76C65.36 34.152 65.664 33.288 65.664 32.168V27.032C65.664 25.912 65.36 25.056 64.752 24.464C64.16 23.856 63.304 23.552 62.184 23.552C61.064 23.552 60.2 23.856 59.592 24.464C59 25.056 58.704 25.912 58.704 27.032V32.168C58.704 33.288 59 34.152 59.592 34.76C60.2 35.352 61.064 35.648 62.184 35.648ZM78.2554 26.432C79.0874 26.432 79.7914 26.656 80.3674 27.104L79.5994 29.696C79.2634 29.472 78.9434 29.312 78.6394 29.216C78.3354 29.12 77.9594 29.072 77.5114 29.072C76.4554 29.072 75.6954 29.776 75.2314 31.184V38H72.1114V30.2C72.1114 29.768 72.0234 29.416 71.8474 29.144C71.6874 28.872 71.3914 28.576 70.9594 28.256L73.0474 26.432C73.5914 26.72 74.0234 27.024 74.3434 27.344C74.6634 27.664 74.8954 28.048 75.0394 28.496C75.3594 27.872 75.7834 27.376 76.3114 27.008C76.8394 26.624 77.4874 26.432 78.2554 26.432ZM86.1624 38.288C84.4984 38.288 83.2184 37.904 82.3224 37.136C81.4264 36.368 80.9784 35.272 80.9784 33.848V30.872C80.9784 29.448 81.4264 28.352 82.3224 27.584C83.2184 26.816 84.4984 26.432 86.1624 26.432C88.2424 26.432 89.7304 27.064 90.6264 28.328L88.4904 30.056C88.1064 29.608 87.7544 29.296 87.4344 29.12C87.1144 28.928 86.6904 28.832 86.1624 28.832C85.5064 28.832 84.9944 29.008 84.6264 29.36C84.2744 29.712 84.0984 30.216 84.0984 30.872V33.848C84.0984 34.504 84.2744 35.008 84.6264 35.36C84.9944 35.712 85.5064 35.888 86.1624 35.888C86.6904 35.888 87.1144 35.8 87.4344 35.624C87.7544 35.432 88.1064 35.112 88.4904 34.664L90.6264 36.392C90.1784 37.032 89.6024 37.512 88.8984 37.832C88.1944 38.136 87.2824 38.288 86.1624 38.288ZM99.0484 26.432C100.28 26.432 101.224 26.768 101.88 27.44C102.552 28.112 102.888 29.072 102.888 30.32V38H99.7684V30.608C99.7684 30.064 99.6164 29.632 99.3124 29.312C99.0244 28.992 98.6324 28.832 98.1364 28.832C97.0804 28.832 96.3204 29.456 95.8564 30.704V38H92.7364V23.768C92.7364 23.336 92.6484 22.984 92.4724 22.712C92.3124 22.44 92.0164 22.144 91.5844 21.824L93.6724 20C94.4884 20.416 95.0564 20.896 95.3764 21.44C95.6964 21.968 95.8564 22.712 95.8564 23.672V27.848C96.5924 26.904 97.6564 26.432 99.0484 26.432ZM107.491 25.208C106.995 25.208 106.571 25.032 106.219 24.68C105.867 24.328 105.691 23.904 105.691 23.408C105.691 22.928 105.867 22.512 106.219 22.16C106.571 21.792 106.995 21.608 107.491 21.608C107.971 21.608 108.387 21.792 108.739 22.16C109.107 22.512 109.291 22.928 109.291 23.408C109.291 23.904 109.107 24.328 108.739 24.68C108.387 25.032 107.971 25.208 107.491 25.208ZM108.115 38.288C107.299 37.872 106.731 37.4 106.411 36.872C106.091 36.328 105.931 35.576 105.931 34.616V26.72H109.051V34.52C109.051 34.952 109.131 35.304 109.291 35.576C109.467 35.848 109.771 36.144 110.203 36.464L108.115 38.288ZM123.175 34.52C123.175 34.952 123.255 35.304 123.415 35.576C123.591 35.848 123.895 36.144 124.327 36.464L122.239 38.288C121.311 37.824 120.679 37.2 120.343 36.416C119.943 37.04 119.439 37.512 118.831 37.832C118.223 38.136 117.471 38.288 116.575 38.288C115.071 38.288 113.871 37.792 112.975 36.8C112.095 35.792 111.655 34.44 111.655 32.744V31.976C111.655 30.968 111.839 30.048 112.207 29.216C112.575 28.368 113.127 27.696 113.863 27.2C114.615 26.688 115.519 26.432 116.575 26.432C118.079 26.432 119.239 26.896 120.055 27.824V23.768C120.055 23.336 119.967 22.984 119.791 22.712C119.631 22.44 119.335 22.144 118.903 21.824L120.991 20C121.807 20.416 122.375 20.896 122.695 21.44C123.015 21.968 123.175 22.712 123.175 23.672V34.52ZM120.055 30.8C119.687 29.488 118.831 28.832 117.487 28.832C116.623 28.832 115.951 29.144 115.471 29.768C115.007 30.376 114.775 31.112 114.775 31.976V32.744C114.775 33.624 115.007 34.368 115.471 34.976C115.935 35.584 116.607 35.888 117.487 35.888C118.831 35.888 119.687 35.232 120.055 33.92V30.8ZM147.296 38H143.72L142.616 34.28C142.392 33.512 142.168 32.92 141.944 32.504C141.72 32.072 141.416 31.744 141.032 31.52C140.648 31.296 140.136 31.184 139.496 31.184H137.072V38H133.688V21.2H140.48C142.528 21.2 144.04 21.608 145.016 22.424C145.992 23.224 146.48 24.48 146.48 26.192C146.48 27.296 146.184 28.184 145.592 28.856C145.016 29.528 144.216 29.96 143.192 30.152C144.008 30.424 144.624 30.896 145.04 31.568C145.456 32.24 145.84 33.152 146.192 34.304L147.296 38ZM140.576 28.544C141.312 28.544 141.912 28.352 142.376 27.968C142.856 27.568 143.096 26.976 143.096 26.192C143.096 25.408 142.856 24.824 142.376 24.44C141.912 24.04 141.312 23.84 140.576 23.84H137.072V28.544H140.576ZM154.296 35.936C154.888 35.936 155.368 35.864 155.736 35.72C156.104 35.56 156.504 35.288 156.936 34.904L158.784 36.584C157.856 37.72 156.36 38.288 154.296 38.288C152.456 38.288 151.128 37.944 150.312 37.256C149.496 36.552 149.088 35.416 149.088 33.848V30.416C149.088 29.184 149.528 28.216 150.408 27.512C151.304 26.792 152.52 26.432 154.056 26.432C155.64 26.432 156.88 26.816 157.776 27.584C158.672 28.336 159.12 29.44 159.12 30.896C159.12 31.6 159.056 32.144 158.928 32.528C158.816 32.912 158.584 33.2 158.232 33.392C157.88 33.568 157.368 33.656 156.696 33.656H152.184V33.872C152.184 35.248 152.888 35.936 154.296 35.936ZM154.056 28.784C153.464 28.784 153 28.96 152.664 29.312C152.344 29.648 152.184 30.096 152.184 30.656V31.52H154.92C155.336 31.52 155.624 31.456 155.784 31.328C155.944 31.2 156.024 30.976 156.024 30.656C156.024 30.048 155.856 29.584 155.52 29.264C155.184 28.944 154.696 28.784 154.056 28.784ZM167.673 26.432C168.905 26.432 169.849 26.768 170.505 27.44C171.177 28.112 171.513 29.072 171.513 30.32V38H168.393V30.608C168.393 30.064 168.241 29.632 167.937 29.312C167.649 28.992 167.257 28.832 166.761 28.832C165.705 28.832 164.945 29.456 164.481 30.704V38H161.361V23.768C161.361 23.336 161.273 22.984 161.097 22.712C160.937 22.44 160.641 22.144 160.209 21.824L162.297 20C163.113 20.416 163.681 20.896 164.001 21.44C164.321 21.968 164.481 22.712 164.481 23.672V27.848C165.217 26.904 166.281 26.432 167.673 26.432ZM184.129 34.52C184.129 34.952 184.209 35.304 184.369 35.576C184.545 35.848 184.849 36.144 185.281 36.464L183.193 38.288C182.281 37.824 181.657 37.24 181.321 36.536C180.969 37.032 180.489 37.448 179.881 37.784C179.273 38.12 178.521 38.288 177.625 38.288C176.489 38.288 175.585 38 174.913 37.424C174.241 36.832 173.905 36 173.905 34.928C173.905 33.968 174.153 33.232 174.649 32.72C175.161 32.192 175.745 31.832 176.401 31.64C177.057 31.448 177.785 31.312 178.585 31.232L179.737 31.112C180.201 31.064 180.521 30.984 180.697 30.872C180.889 30.76 180.993 30.576 181.009 30.32C180.977 29.84 180.817 29.432 180.529 29.096C180.257 28.76 179.729 28.592 178.945 28.592C178.433 28.592 177.985 28.688 177.601 28.88C177.217 29.072 176.825 29.384 176.425 29.816L174.289 28.328C174.753 27.72 175.337 27.256 176.041 26.936C176.745 26.6 177.713 26.432 178.945 26.432C182.401 26.432 184.129 27.832 184.129 30.632V34.52ZM178.417 36.056C179.249 36.056 179.889 35.856 180.337 35.456C180.785 35.04 181.009 34.536 181.009 33.944V32.936C180.753 33.032 180.265 33.12 179.545 33.2L178.825 33.272C178.281 33.32 177.825 33.448 177.457 33.656C177.089 33.848 176.905 34.216 176.905 34.76C176.905 35.176 177.041 35.496 177.313 35.72C177.585 35.944 177.953 36.056 178.417 36.056ZM193.813 38.288C192.309 38.288 191.149 37.824 190.333 36.896V38H187.213V23.768C187.213 23.336 187.125 22.984 186.949 22.712C186.789 22.44 186.493 22.144 186.061 21.824L188.149 20C188.965 20.416 189.533 20.896 189.853 21.44C190.173 21.968 190.333 22.712 190.333 23.672V27.896C191.165 26.92 192.325 26.432 193.813 26.432C194.869 26.432 195.765 26.688 196.501 27.2C197.253 27.696 197.813 28.368 198.181 29.216C198.549 30.048 198.733 30.968 198.733 31.976V32.744C198.733 33.752 198.549 34.68 198.181 35.528C197.813 36.36 197.253 37.032 196.501 37.544C195.765 38.04 194.869 38.288 193.813 38.288ZM192.901 35.888C193.781 35.888 194.453 35.584 194.917 34.976C195.381 34.368 195.613 33.624 195.613 32.744V31.976C195.613 31.096 195.381 30.352 194.917 29.744C194.453 29.136 193.781 28.832 192.901 28.832C191.557 28.832 190.701 29.488 190.333 30.8V33.92C190.701 35.232 191.557 35.888 192.901 35.888Z" fill="#024985"/>
<path d="M39.8438 29.6875C36.7309 29.6905 33.6829 30.5778 31.0549 32.2463C28.4269 33.9147 26.3271 36.2955 25 39.1113C23.6729 36.2955 21.5731 33.9147 18.9451 32.2463C16.3171 30.5778 13.2691 29.6905 10.1562 29.6875H1.5625V31.25C1.5625 40.2965 8.92227 47.6562 17.9688 47.6562H32.0312C41.0777 47.6562 48.4375 40.2965 48.4375 31.25V29.6875H39.8438ZM17.9688 44.5312C11.1737 44.5312 5.5543 39.4024 4.77891 32.8125H10.1562C16.9513 32.8125 22.5707 37.9413 23.3461 44.5312H17.9688ZM32.0312 44.5312H26.6539C27.4293 37.9413 33.0487 32.8125 39.8438 32.8125H45.2211C44.4457 39.4024 38.8263 44.5312 32.0312 44.5312Z" fill="#024985"/>
<path d="M16.5261 25.6614C16.8216 27.4186 17.6599 29.0391 18.9232 30.2955L19.381 30.7531H20.0281C21.8099 30.7581 23.5486 30.205 25 29.1715C26.4514 30.2051 28.19 30.7584 29.9719 30.7535H30.619L31.0768 30.2959C32.3401 29.0394 33.1784 27.4189 33.4739 25.6618C35.2311 25.3663 36.8515 24.528 38.108 23.2647L38.5656 22.8069V22.1598C38.5707 20.3778 38.0176 18.6391 36.984 17.1875C38.0176 15.7361 38.5709 13.9975 38.566 12.2156V11.5685L38.1084 11.1107C36.8519 9.84737 35.2314 9.0091 33.4743 8.71358C33.1788 6.95646 32.3405 5.33596 31.0772 4.0795L30.6194 3.62188H29.9723C28.1903 3.61685 26.4516 4.16994 25 5.20352C23.5486 4.16987 21.81 3.61664 20.0281 3.62149H19.381L18.9232 4.07911C17.6599 5.33557 16.8216 6.95607 16.5261 8.71319C14.769 9.00871 13.1485 9.84698 11.892 11.1104L11.4344 11.5681V12.2152C11.4293 13.9972 11.9824 15.7359 13.016 17.1875C11.9824 18.6389 11.4291 20.3775 11.434 22.1594V22.8065L11.8916 23.2643C13.1482 24.5277 14.7688 25.366 16.5261 25.6614ZM16.1612 16.0827C15.2947 15.2214 14.7441 14.0928 14.5987 12.8796C15.5593 12.1243 16.7468 11.7152 17.9688 11.7188H19.5313V10.1563C19.5277 8.93439 19.9366 7.7471 20.6918 6.78653C21.905 6.93192 23.0336 7.48245 23.8949 8.34903L25 9.45313L26.1048 8.34835C26.9662 7.48178 28.0948 6.93124 29.3079 6.78585C30.0633 7.74656 30.4723 8.93413 30.4688 10.1563V11.7188H32.0313C33.2531 11.7152 34.4404 12.1241 35.401 12.8793C35.2556 14.0925 34.705 15.2211 33.8385 16.0824L32.7344 17.1875L33.8393 18.2924C34.7058 19.1537 35.2564 20.2823 35.4018 21.4955C34.441 22.2509 33.2534 22.6599 32.0313 22.6563H30.4688V24.2188C30.4723 25.4406 30.0634 26.6279 29.3082 27.5885C28.095 27.4431 26.9664 26.8926 26.1051 26.026L25 24.9219L23.8951 26.0264C23.0338 26.8929 21.9052 27.4435 20.692 27.5889C19.9367 26.6282 19.5277 25.4408 19.5313 24.2188V22.6563H17.9688C16.7469 22.6598 15.5596 22.2509 14.599 21.4957C14.7444 20.2825 15.295 19.1539 16.1615 18.2926L17.2656 17.1875L16.1612 16.0827Z" fill="#024985"/>
</svg>
